<?xml version="1.0" standalone="no"?>
<!DOCTYPE svg PUBLIC "-//W3C//DTD SVG 20010904//EN"
 "http://www.w3.org/TR/2001/REC-SVG-20010904/DTD/svg10.dtd">
<svg version="1.0" xmlns="http://www.w3.org/2000/svg"
 width="453.000000pt" height="514.000000pt" viewBox="0 0 453.000000 514.000000"
 preserveAspectRatio="xMidYMid meet">

<g transform="translate(0.000000,514.000000) scale(0.100000,-0.100000)"
fill="#000000" stroke="none">
<path d="M3857 5080 c-136 -23 -343 -118 -496 -228 -181 -129 -406 -385 -525
-596 l-48 -86 -61 0 c-281 -2 -471 -178 -573 -530 -35 -125 -32 -131 41 -75
102 80 224 132 347 150 64 8 72 2 49 -43 -10 -20 -24 -55 -29 -76 -10 -34 -8
-44 13 -80 84 -143 276 -287 439 -330 68 -17 72 -16 153 41 39 27 64 39 68 32
14 -21 22 -176 13 -249 -5 -41 -23 -115 -39 -163 -17 -49 -29 -90 -27 -93 2
-2 44 21 93 50 154 92 293 225 345 327 42 81 50 289 16 401 l-13 44 80 90
c313 350 477 726 477 1092 0 181 -26 284 -80 315 -31 19 -153 22 -243 7z m211
-49 c8 -5 -20 -12 -73 -20 -131 -18 -275 -80 -275 -118 0 -22 130 -144 193
-182 32 -18 90 -43 131 -55 l75 -21 -23 -65 c-72 -207 -200 -390 -368 -525
-106 -85 -217 -138 -364 -176 -133 -33 -133 -33 -306 -190 -69 -63 -140 -118
-168 -131 -28 -13 -50 -25 -50 -28 0 -11 135 -108 185 -133 43 -21 74 -32 185
-64 13 -4 13 -5 0 -13 -61 -39 -293 65 -438 195 -27 24 -72 78 -101 120 l-52
75 31 88 c64 174 209 431 362 639 80 110 262 300 326 343 42 28 47 29 63 14
10 -9 21 -25 24 -35 7 -22 24 -24 50 -5 18 13 18 14 2 31 -29 28 -3 92 52 128
51 34 118 67 134 67 8 0 19 -11 25 -25 15 -33 29 -32 37 5 7 34 39 51 135 75
62 15 188 19 208 6z m-1368 -935 c0 -8 -26 -20 -72 -31 -141 -33 -238 -114
-339 -282 -64 -105 -78 -94 -19 15 108 196 178 263 317 296 77 19 113 19 113
2z m860 -945 c0 -27 -66 -107 -150 -182 -92 -83 -108 -87 -45 -13 28 32 64 77
79 99 36 49 97 115 108 115 4 0 8 -9 8 -19z"/>
<path d="M3420 4511 c-52 -17 -89 -42 -124 -83 -77 -89 -76 -217 1 -308 151
-176 436 -75 436 155 0 90 -44 161 -130 212 -46 27 -138 39 -183 24z m77 -97
c15 -24 15 -29 2 -53 -34 -60 -130 -66 -137 -8 -3 21 5 35 28 57 41 39 83 40
107 4z"/>
<path d="M3940 4511 c0 -6 5 -13 10 -16 6 -3 10 1 10 9 0 9 -4 16 -10 16 -5 0
-10 -4 -10 -9z"/>
<path d="M2820 3811 c0 -40 11 -44 45 -17 33 27 27 46 -16 46 -25 0 -29 -4
-29 -29z"/>
<path d="M2291 4844 c-13 -48 -43 -79 -96 -97 l-40 -14 33 -7 c45 -10 88 -50
103 -94 l12 -37 17 40 c21 49 45 71 94 88 l38 13 -39 12 c-47 14 -80 47 -98
98 l-13 39 -11 -41z"/>
<path d="M1837 4539 c-3 -22 -18 -66 -34 -97 -42 -84 -105 -126 -238 -157 -28
-7 -25 -9 42 -30 82 -26 104 -38 151 -86 44 -44 71 -98 79 -154 7 -55 18 -58
28 -7 10 58 48 134 86 171 38 38 121 81 159 81 14 0 31 4 39 9 15 10 7 13 -59
26 -110 22 -203 124 -225 248 -9 49 -21 47 -28 -4z"/>
<path d="M1120 3928 c-58 -63 27 -152 98 -102 16 11 22 25 22 54 0 29 -6 43
-22 54 -32 23 -74 20 -98 -6z"/>
<path d="M4172 3712 c-14 -46 -25 -57 -78 -75 l-39 -14 36 -7 c41 -7 62 -26
82 -75 l14 -34 12 35 c14 44 36 64 80 75 l34 9 -40 12 c-47 14 -58 25 -76 77
l-13 37 -12 -40z"/>
<path d="M1493 3629 c-31 -20 -35 -26 -47 -81 -7 -33 13 -85 42 -111 29 -27
92 -33 130 -13 42 22 62 53 62 99 0 100 -104 159 -187 106z"/>
<path d="M2475 3391 c-166 -79 -342 -229 -468 -399 -62 -83 -157 -245 -157
-267 0 -4 17 6 38 22 40 31 103 73 141 92 27 15 32 25 -54 -109 -181 -283
-288 -532 -309 -720 -7 -54 -4 -51 85 125 160 315 384 689 469 785 17 19 -10
-27 -59 -103 -136 -208 -263 -484 -315 -684 -9 -34 -19 -70 -23 -79 -10 -26
13 -14 150 78 173 116 250 180 434 362 162 162 191 184 91 70 -91 -104 -559
-556 -641 -618 -42 -32 -75 -61 -72 -64 13 -13 221 107 339 195 139 103 315
267 372 345 20 27 38 47 40 45 3 -2 0 -36 -6 -76 -18 -115 -14 -116 79 -11
198 225 338 503 358 718 6 65 8 62 -38 66 -7 1 -17 -17 -24 -39 -17 -59 -66
-165 -76 -165 -13 0 -11 45 4 117 l13 62 -115 -112 c-104 -101 -161 -144 -313
-239 -23 -15 -53 -35 -64 -43 -21 -15 -20 -10 12 90 57 181 124 311 223 438
41 52 49 68 38 73 -20 7 -58 -13 -131 -70 -59 -47 -86 -54 -50 -15 22 24 128
105 145 111 9 3 7 12 -6 31 -9 15 -20 27 -24 27 -3 0 -42 -18 -86 -39z m300
-404 c-8 -26 -19 -55 -24 -65 -20 -34 -12 16 10 69 27 61 33 59 14 -4z"/>
<path d="M4147 3264 c-9 -33 -25 -74 -37 -92 -27 -44 -100 -89 -168 -103 -38
-8 -51 -14 -41 -20 8 -5 23 -9 34 -9 31 -1 107 -38 138 -68 36 -34 67 -93 83
-157 12 -52 14 -51 33 30 24 99 104 177 197 191 60 9 63 19 8 33 -104 26 -168
80 -199 167 -9 27 -20 57 -24 68 -5 14 -11 4 -24 -40z"/>
<path d="M853 3206 c-52 -17 -91 -47 -137 -109 -20 -27 -90 -110 -154 -185
-419 -487 -492 -618 -494 -887 -2 -250 105 -480 307 -657 306 -267 752 -289
1077 -52 25 19 91 85 146 148 55 62 187 200 294 306 106 106 186 189 178 184
-8 -5 -46 -30 -85 -55 -125 -81 -183 -110 -233 -116 -57 -6 -100 12 -121 51
-8 14 -37 37 -64 52 -242 126 -446 294 -606 499 -148 188 -229 342 -252 481
-15 86 -8 128 33 189 88 133 232 147 456 47 164 -73 323 -188 513 -370 60 -58
111 -103 113 -101 2 2 6 14 10 26 6 18 -11 38 -106 124 -140 127 -219 190
-326 262 -218 145 -416 204 -549 163z m-164 -496 c11 -30 39 -86 61 -124 22
-37 40 -71 40 -75 0 -3 -31 -25 -68 -48 -37 -23 -87 -60 -112 -82 -44 -39 -44
-40 -18 -41 15 0 30 -5 34 -11 10 -17 -54 -75 -126 -113 -82 -44 -132 -92
-170 -169 -116 -232 -7 -523 253 -673 83 -47 72 -57 -15 -13 -91 45 -201 131
-253 197 -63 79 -130 216 -150 308 -22 99 -16 254 13 336 60 167 180 345 408
607 l69 79 7 -61 c3 -34 15 -87 27 -117z m-128 -574 c25 -54 -103 -241 -160
-234 -23 3 -26 8 -29 45 -4 54 32 126 87 176 49 44 86 49 102 13z"/>
<path d="M893 3108 c-50 -36 -68 -74 -68 -148 0 -196 210 -515 500 -758 77
-65 243 -182 258 -182 3 0 8 17 12 37 17 95 91 287 169 441 l37 74 -143 142
c-203 202 -390 330 -570 390 -96 33 -153 34 -195 4z"/>
<path d="M3670 2672 c-23 -24 -30 -39 -30 -71 0 -57 32 -91 93 -98 43 -5 49
-3 77 27 62 66 28 157 -62 167 -42 5 -50 3 -78 -25z"/>
<path d="M3314 2494 l-22 -15 25 -25 26 -26 20 21 c20 20 20 21 2 41 -21 23
-23 24 -51 4z"/>
<path d="M4040 2294 c0 -28 -36 -73 -69 -86 l-26 -10 37 -15 c27 -11 41 -24
50 -49 13 -37 28 -45 28 -16 0 29 29 61 63 70 l32 9 -38 16 c-28 12 -43 27
-57 59 -13 29 -20 36 -20 22z"/>
<path d="M3135 2189 c-182 -16 -366 -63 -588 -151 -288 -113 -564 -300 -642
-433 -35 -58 -47 -125 -35 -181 6 -25 50 -150 99 -277 48 -128 107 -286 130
-352 92 -259 180 -398 322 -509 184 -144 343 -198 589 -198 209 -1 319 27 495
126 64 36 117 76 185 142 142 138 222 283 249 454 15 93 13 263 -4 345 -26
124 -279 864 -312 915 -44 67 -125 105 -255 119 -54 6 -105 10 -115 10 -10 -1
-63 -6 -118 -10z m322 -54 c63 -22 130 -76 149 -122 8 -18 14 -60 14 -93 0
-36 6 -74 16 -91 8 -17 13 -38 10 -46 -4 -9 -2 -21 3 -27 20 -24 171 -496 186
-580 30 -176 16 -361 -37 -485 -24 -58 -35 -46 -13 16 23 68 30 188 15 280
-16 104 -75 285 -173 533 -44 113 -82 207 -84 209 -2 3 -12 -4 -23 -15 -20
-19 -20 -20 15 -102 43 -104 87 -245 121 -387 28 -125 47 -414 26 -401 -7 4
-12 15 -12 26 0 29 -108 335 -157 445 -24 55 -61 138 -80 185 -43 101 -39 96
-57 81 -7 -6 -47 -18 -87 -27 -44 -9 -119 -37 -184 -69 -254 -123 -568 -205
-789 -205 -53 0 -96 -2 -96 -4 0 -2 9 -26 21 -53 12 -26 58 -158 104 -293 45
-135 92 -265 105 -290 66 -131 181 -252 299 -314 105 -55 79 -57 -33 -2 -118
57 -239 167 -303 275 -36 60 -117 254 -258 619 -16 39 -33 72 -40 72 -6 0 -35
7 -64 16 -64 19 -135 80 -152 131 -25 78 10 179 96 271 181 196 625 393 1030
457 125 20 362 14 432 -10z"/>
<path d="M3035 2094 c-515 -79 -1075 -390 -1075 -597 0 -81 78 -123 250 -134
223 -13 632 96 908 242 267 142 438 309 417 406 -8 36 -61 74 -125 88 -63 15
-267 12 -375 -5z m-20 -229 c33 -32 31 -67 -3 -107 -40 -44 -84 -43 -124 1
-23 26 -28 39 -23 60 17 70 101 96 150 46z"/>
</g>
</svg>
