<?xml version="1.0" standalone="no"?>
<!DOCTYPE svg PUBLIC "-//W3C//DTD SVG 20010904//EN"
 "http://www.w3.org/TR/2001/REC-SVG-20010904/DTD/svg10.dtd">
<svg version="1.0" xmlns="http://www.w3.org/2000/svg"
 width="1536.000000pt" height="1024.000000pt" viewBox="0 0 1536.000000 1024.000000"
 preserveAspectRatio="xMidYMid meet">

<g transform="translate(0.000000,1024.000000) scale(0.100000,-0.100000)"
fill="#000000" stroke="none">
<path d="M9340 8255 c-223 -42 -489 -173 -710 -352 -190 -154 -408 -420 -573
-703 l-39 -65 -87 -2 c-296 -8 -492 -160 -631 -486 -42 -99 -97 -293 -86 -304
3 -4 32 14 64 38 121 95 249 155 384 183 81 17 121 20 130 10 3 -3 -9 -41 -28
-84 -19 -43 -34 -87 -34 -97 0 -30 70 -132 144 -210 106 -113 257 -208 400
-252 98 -30 112 -28 197 30 41 28 79 53 85 56 19 7 39 -95 39 -202 0 -113 -21
-219 -67 -338 -17 -43 -28 -81 -25 -83 7 -8 36 9 162 92 258 169 389 328 416
504 14 94 7 264 -16 352 l-17 68 87 92 c272 289 475 657 562 1018 21 87 26
138 30 295 7 257 -19 377 -90 429 -24 17 -45 21 -125 23 -53 1 -131 -4 -172
-12z m228 -51 c28 -4 52 -10 52 -14 0 -4 -35 -10 -77 -14 -43 -4 -112 -16
-155 -27 -77 -21 -218 -94 -226 -116 -2 -7 36 -52 85 -101 104 -105 191 -159
319 -198 l91 -28 -30 -85 c-69 -203 -196 -401 -354 -552 -180 -172 -324 -249
-583 -314 -116 -28 -131 -38 -323 -213 -131 -119 -229 -188 -274 -194 -23 -3
-18 -9 52 -66 129 -104 292 -181 383 -182 l37 -1 -25 -20 c-33 -28 -83 -21
-203 27 -215 86 -385 227 -497 412 -23 36 -29 56 -23 65 6 6 27 57 48 112 67
180 239 488 389 700 128 181 338 407 448 483 l48 33 29 -30 c16 -17 32 -39 36
-50 6 -21 6 -21 38 2 18 12 34 23 36 25 3 1 -5 9 -17 18 -37 26 -23 93 30 140
28 26 102 68 163 94 l47 20 15 -40 c19 -48 37 -47 41 2 3 33 7 36 70 63 108
44 223 61 330 49z m-1657 -1162 c-6 -12 -32 -22 -77 -31 -90 -18 -192 -71
-263 -137 -58 -53 -158 -190 -199 -270 -11 -22 -28 -46 -37 -54 -33 -27 61
159 136 270 52 76 134 154 197 185 57 28 154 53 215 54 33 1 37 -1 28 -17z
m1060 -1163 c-18 -53 -90 -137 -196 -230 -54 -48 -101 -86 -103 -84 -3 2 19
30 48 62 29 32 71 83 93 113 45 61 159 182 165 175 2 -2 -1 -18 -7 -36z"/>
<path d="M8753 7536 c-59 -28 -122 -89 -149 -144 -14 -28 -19 -60 -19 -127 0
-76 4 -97 25 -139 92 -181 358 -217 493 -66 79 88 101 223 53 326 -27 59 -103
129 -168 155 -66 27 -171 25 -235 -5z m131 -81 c38 -38 21 -101 -34 -130 -83
-43 -159 16 -109 86 36 51 112 75 143 44z"/>
<path d="M9440 7550 c0 -5 5 -10 10 -10 6 0 10 5 10 10 0 6 -4 10 -10 10 -5 0
-10 -4 -10 -10z"/>
<path d="M8067 6750 c-4 -14 -7 -42 -7 -62 0 -47 23 -51 66 -11 23 21 25 27
13 32 -25 10 -56 35 -61 51 -3 10 -7 6 -11 -10z"/>
<path d="M7421 8003 c-1 -36 -37 -108 -62 -125 -13 -8 -42 -21 -64 -29 -53
-17 -65 -29 -32 -29 38 0 103 -35 123 -65 9 -13 22 -44 29 -67 8 -24 14 -35
14 -25 1 10 12 40 26 66 18 37 35 54 68 70 24 12 53 21 65 21 12 0 22 5 22 10
0 6 -8 10 -19 10 -31 0 -90 29 -114 56 -12 14 -30 48 -39 77 -9 29 -17 42 -17
30z"/>
<path d="M6856 7600 c-26 -166 -132 -273 -314 -320 l-67 -17 76 -17 c161 -36
269 -147 304 -310 12 -56 13 -59 20 -31 16 69 39 132 61 171 48 84 164 161
261 172 63 7 62 19 -3 32 -84 18 -133 42 -192 95 -60 54 -94 113 -112 198 -8
32 -17 60 -20 62 -4 3 -10 -13 -14 -35z"/>
<path d="M5995 6861 c-32 -13 -47 -37 -48 -74 -1 -49 25 -85 69 -93 59 -11
104 28 104 91 0 53 -74 98 -125 76z"/>
<path d="M9732 6583 c-17 -57 -39 -80 -96 -102 l-50 -19 35 -7 c53 -11 79 -32
103 -85 l22 -48 12 43 c13 49 48 80 108 94 22 5 30 9 20 10 -33 2 -106 42
-118 64 -6 12 -15 38 -18 57 l-7 35 -11 -42z"/>
<path d="M6429 6467 c-44 -30 -59 -60 -59 -124 0 -41 5 -58 26 -83 74 -87 194
-78 245 20 69 130 -89 270 -212 187z"/>
<path d="M7616 6166 c-59 -30 -143 -81 -188 -113 -106 -76 -288 -256 -367
-363 -67 -91 -201 -316 -201 -338 0 -8 20 4 44 25 39 34 195 133 210 133 3 0
-10 -20 -28 -45 -38 -49 -218 -350 -259 -430 -96 -192 -174 -422 -186 -547 -7
-67 1 -90 14 -45 10 32 178 366 238 472 191 340 366 617 443 700 l46 50 -36
-50 c-212 -295 -328 -518 -446 -861 -45 -129 -73 -234 -66 -242 11 -10 354
230 481 336 149 126 360 338 428 431 26 35 47 59 47 53 0 -12 -71 -108 -131
-178 -132 -154 -718 -708 -878 -831 -2 -2 -2 -5 1 -8 14 -14 218 98 357 197
191 137 454 376 538 491 20 26 37 47 38 45 2 -2 -1 -29 -6 -60 -21 -136 -25
-168 -23 -168 7 0 116 116 177 188 139 165 281 420 332 597 31 109 58 266 46
278 -4 4 -20 9 -35 10 -25 2 -28 -3 -52 -71 -28 -84 -68 -167 -85 -178 -15 -9
-6 95 15 175 l13 52 -126 -124 c-144 -140 -208 -192 -336 -267 -49 -29 -111
-70 -137 -92 l-47 -38 54 152 c67 193 69 199 110 279 46 90 97 169 168 259 58
73 58 75 34 78 -34 4 -71 -16 -162 -89 -42 -34 -79 -58 -83 -55 -9 10 108 116
167 151 28 17 51 33 51 36 0 13 -42 59 -54 59 -7 0 -61 -24 -120 -54z m375
-522 c-21 -56 -30 -71 -30 -51 -1 31 52 164 57 143 1 -7 -11 -48 -27 -92z"/>
<path d="M9711 6079 c-3 -52 -44 -150 -81 -192 -46 -52 -138 -103 -205 -113
-54 -8 -50 -20 7 -29 105 -18 191 -82 238 -179 18 -35 34 -82 37 -105 7 -51
19 -45 27 13 4 25 21 72 37 106 39 77 98 123 193 151 39 11 78 23 86 26 8 3
-14 12 -50 21 -147 38 -223 111 -271 262 -9 30 -18 48 -18 39z"/>
<path d="M5637 5946 c-65 -24 -113 -62 -172 -138 -30 -40 -99 -122 -151 -183
-266 -308 -437 -525 -512 -648 -145 -242 -173 -575 -70 -839 58 -151 135 -269
260 -396 199 -203 481 -321 768 -321 164 -1 295 30 445 103 140 68 192 110
345 276 69 74 233 244 365 378 132 133 242 246 245 249 3 4 -22 -14 -55 -38
-129 -97 -291 -184 -359 -194 -57 -9 -123 20 -149 65 -10 17 -37 40 -60 52
-63 31 -233 135 -307 187 -408 283 -780 813 -780 1111 0 98 67 203 161 255 50
28 61 30 159 30 121 0 156 -10 325 -89 201 -95 405 -248 632 -472 l102 -101
12 30 c13 30 12 31 -87 126 -230 222 -510 424 -696 502 -156 66 -327 88 -421
55z m-231 -459 c1 -86 41 -196 115 -318 l47 -77 -74 -47 c-81 -51 -203 -146
-204 -157 0 -5 14 -8 30 -8 91 0 10 -89 -159 -174 -63 -33 -122 -101 -171
-201 -90 -182 -68 -386 64 -583 75 -112 178 -199 311 -264 44 -21 67 -36 50
-32 -58 11 -211 91 -292 153 -230 173 -368 471 -350 751 10 154 86 339 215
525 82 119 395 502 412 504 3 1 5 -32 6 -72z m-136 -832 c36 -43 -1 -145 -85
-242 -80 -91 -145 -102 -145 -23 0 90 82 224 162 263 41 21 52 21 68 2z"/>
<path d="M5750 5851 c-123 -25 -176 -146 -135 -305 35 -134 130 -313 253 -475
78 -103 275 -301 397 -397 90 -71 255 -184 269 -184 4 0 6 6 6 14 0 49 113
347 206 545 l54 114 -35 43 c-113 137 -267 278 -445 406 -131 94 -225 147
-339 193 -70 28 -188 61 -195 54 0 -1 -17 -4 -36 -8z"/>
<path d="M9153 5323 c-33 -6 -70 -46 -83 -90 -30 -101 83 -188 179 -139 57 30
80 94 55 157 -13 32 -27 46 -58 60 -41 19 -52 20 -93 12z"/>
<path d="M8684 5079 c-9 -11 -25 -19 -35 -19 -13 0 -9 -8 17 -34 l34 -34 29
27 30 28 -29 25 c-28 25 -30 25 -46 7z"/>
<path d="M9560 4825 c0 -37 -32 -77 -78 -97 l-47 -21 39 -14 c51 -17 73 -38
81 -74 9 -42 22 -44 29 -4 7 38 45 73 88 82 38 8 35 19 -6 27 -38 7 -86 55
-86 86 0 10 -4 22 -10 25 -5 3 -10 -1 -10 -10z"/>
<path d="M8545 4703 c-265 -13 -511 -70 -800 -185 -301 -119 -562 -274 -708
-420 -99 -99 -142 -175 -152 -268 -7 -61 0 -81 147 -470 41 -107 103 -274 137
-370 78 -217 124 -318 193 -417 152 -220 409 -388 681 -444 88 -18 127 -20
287 -16 221 5 323 28 485 107 139 68 216 121 317 218 140 135 233 290 283 472
39 139 46 364 16 505 -21 102 -126 431 -245 765 -131 372 -131 371 -181 417
-25 23 -70 51 -100 62 -86 32 -231 50 -360 44z m296 -72 c77 -25 148 -82 182
-145 16 -31 22 -60 23 -121 0 -51 7 -94 18 -118 9 -21 14 -42 11 -47 -3 -5 12
-55 33 -112 72 -189 170 -503 194 -613 30 -146 32 -384 4 -490 -18 -67 -70
-195 -79 -195 -3 0 7 35 20 78 35 106 37 294 5 424 -33 133 -101 332 -189 553
-44 110 -88 222 -98 249 l-18 49 -26 -32 -27 -32 33 -67 c56 -113 135 -373
173 -567 23 -117 40 -471 21 -430 -6 11 -28 82 -51 159 -43 146 -150 427 -205
536 -18 36 -47 100 -65 143 -26 63 -36 77 -49 71 -34 -14 -147 -44 -168 -44
-12 0 -87 -31 -165 -69 -162 -78 -316 -135 -498 -185 -176 -48 -293 -66 -457
-73 -79 -3 -143 -7 -143 -8 0 -2 13 -34 29 -71 16 -38 73 -199 126 -359 108
-323 145 -403 240 -522 81 -101 164 -168 289 -233 118 -61 105 -65 -24 -7
-215 97 -346 218 -453 417 -25 47 -84 186 -132 310 -48 124 -109 282 -137 352
l-49 126 -52 12 c-228 54 -305 247 -176 438 179 261 763 542 1315 632 168 27
449 23 545 -9z"/>
<path d="M8382 4590 c-39 -5 -134 -23 -210 -40 -430 -96 -826 -280 -1041 -485
-174 -166 -176 -297 -6 -356 100 -35 283 -37 475 -5 279 47 568 142 812 267
230 118 471 312 513 412 36 85 7 146 -87 188 -47 20 -70 23 -218 25 -91 1
-198 -2 -238 -6z m-90 -287 c14 -16 28 -39 31 -52 9 -37 -26 -95 -68 -115 -47
-23 -86 -8 -125 46 l-28 38 19 40 c24 50 54 70 104 70 32 0 47 -6 67 -27z"/>
</g>
</svg>
